<?xml version="1.0" encoding="UTF-8"?>
<!-- Created with Inkscape (http://www.inkscape.org/) -->
<svg width="467.94" height="224.72" version="1.1" viewBox="0 0 123.81018 59.458334" xmlns="http://www.w3.org/2000/svg" xmlns:cc="http://creativecommons.org/ns#" xmlns:dc="http://purl.org/dc/elements/1.1/" xmlns:rdf="http://www.w3.org/1999/02/22-rdf-syntax-ns#">
 <metadata>
  <rdf:RDF>
   <cc:Work rdf:about="">
    <dc:format>image/svg+xml</dc:format>
    <dc:type rdf:resource="http://purl.org/dc/dcmitype/StillImage"/>
    <dc:title/>
   </cc:Work>
  </rdf:RDF>
 </metadata>
 <g transform="translate(-6.1398 -4.7731)">
  <g transform="translate(-57.415 8.9958)">
   <rect x="106.93" y="-4.2227" width="80.433" height="29.898" fill="#cdbaff" stroke-width=".26458"/>
   <path d="m70.376 55.153c-0.09313-0.0388-0.2812-0.18872-0.41792-0.33321-0.20224-0.21373-0.25494-0.35351-0.28266-0.74963-0.02842-0.40624-9.81e-4 -0.53603 0.16561-0.78326 0.29234-0.43383 0.68464-0.60865 1.2801-0.57043 0.43169 0.0277 0.52835 0.0687 0.79862 0.33901 0.26904 0.26905 0.31178 0.36888 0.34186 0.79862 0.02876 0.41087 0.0017 0.53957-0.16531 0.78747-0.10982 0.16298-0.33227 0.36295-0.49433 0.44437-0.30702 0.15425-0.93417 0.18856-1.226 0.0671zm0.82869-0.17998c0.48541-0.22117 0.6878-1.2009 0.34404-1.6654-0.26933-0.36394-0.566-0.47754-0.85577-0.3277-0.46001 0.23788-0.62478 0.94486-0.36499 1.566 0.09552 0.22837 0.39813 0.46557 0.65788 0.51567 0.0095 2e-3 0.10793-0.038 0.21884-0.0886zm3.2428 6.8e-4c-0.20196-0.23998-0.21919-0.32333-0.21919-1.0604 0-0.77536-0.0065-0.8024-0.21167-0.88041-0.35092-0.13342-0.24041-0.25399 0.23283-0.25404l0.4445-4e-5v0.87994c0 0.74643 0.02447 0.90702 0.16129 1.0584 0.22208 0.24568 0.64459 0.23549 0.8859-0.0214 0.16806-0.17889 0.18511-0.27414 0.16293-0.91016-0.02315-0.66346-0.03736-0.71215-0.21528-0.73742-0.10478-0.0149-0.1905-0.0816-0.1905-0.14816 0-0.09 0.11668-0.12112 0.45387-0.12112h0.45387l-0.04167 0.79656c-0.05263 1.0061-9.27e-4 1.2354 0.27854 1.2354 0.3267 0 0.24899 0.21553-0.11727 0.32527-0.47297 0.1417-0.60401 0.12491-0.60401-0.0774v-0.17548l-0.22308 0.17548c-0.15496 0.12189-0.34657 0.17548-0.62747 0.17548-0.34762 0-0.43516-0.0366-0.62358-0.2605zm4.4517 0.0477c-0.14966-0.19026-0.16248-0.30253-0.12083-1.0583l0.04659-0.84549h-0.20987c-0.11543 0-0.23046-0.0206-0.25563-0.0458-0.04551-0.0455 0.81498-0.9702 0.90284-0.9702 0.02532 0 0.04603 0.1524 0.04603 0.33867v0.33866h0.42954c0.36335 0 0.42521 0.0228 0.40144 0.14817-0.0208 0.10964-0.12662 0.15519-0.40698 0.17517-0.20838 0.0148-0.4075 0.072-0.44247 0.127-0.09349 0.147-0.07991 1.1959 0.01884 1.4556 0.07237 0.19035 0.1284 0.2199 0.37646 0.19852 0.16029-0.0138 0.32199 5e-3 0.35934 0.0428 0.12192 0.12192-0.25223 0.30807-0.6192 0.30807-0.28227 0-0.39434-0.0453-0.5261-0.21285zm19.474 0.13927c-0.0616-0.039-0.14522-0.21847-0.18587-0.39873-0.1026-0.45488 0.0696-0.54618 0.29296-0.15534 0.0927 0.16223 0.25556 0.3168 0.36189 0.34348 0.26601 0.0668 0.5875-0.0258 0.64933-0.1869 0.0919-0.23941-0.0998-0.43118-0.62083-0.62116-0.54693-0.19938-0.68186-0.35153-0.68186-0.76888 0-0.41542 0.34351-0.67885 0.88518-0.67885 0.4941 0 0.68999 0.11102 0.76805 0.43526 0.0804 0.33412-0.0999 0.37453-0.34925 0.0783-0.14925-0.17738-0.29445-0.25951-0.45879-0.25951-0.2251 0-0.50652 0.18423-0.50652 0.33159 0 0.13414 0.3077 0.33301 0.66063 0.427 0.47618 0.1268 0.69404 0.3516 0.69404 0.71615 0 0.40615-0.0697 0.54518-0.34473 0.68739-0.25921 0.13404-0.98284 0.1653-1.1642 0.0503zm3.6157-0.25513c-0.30449-0.30446-0.3287-0.364-0.3287-0.8085 0-0.52421 0.1213-0.82816 0.45486-1.1398 0.40486-0.37821 1.4933-0.32184 1.6221 0.084 0.11868 0.37394-0.35728 0.47006-0.58753 0.11865-0.16598-0.25332-0.54956-0.28568-0.75077-0.0633-0.38814 0.42889-0.34085 1.1092 0.10834 1.5584 0.27844 0.27844 0.69337 0.32135 1.0039 0.10382 0.13382-0.0937 0.22272-0.10938 0.28239-0.0497 0.2128 0.2128-0.4024 0.52518-1.0343 0.52518-0.40015 0-0.47255-0.0309-0.77037-0.32871zm3.8698 0.0682c-0.20196-0.23998-0.21919-0.32333-0.21919-1.0604 0-0.77536-7e-3 -0.8024-0.21167-0.88041-0.35092-0.13342-0.24041-0.25399 0.23284-0.25404l0.4445-4e-5v0.87994c0 0.74643 0.0245 0.90702 0.16129 1.0584 0.22207 0.24568 0.64459 0.23549 0.8859-0.0214 0.16806-0.17889 0.18511-0.27414 0.16292-0.91016-0.0231-0.66346-0.0374-0.71215-0.21528-0.73742-0.10477-0.0149-0.1905-0.0816-0.1905-0.14816 0-0.09 0.11668-0.12112 0.45387-0.12112h0.45387l-0.0417 0.79656c-0.0526 1.0061-9.2e-4 1.2354 0.27854 1.2354 0.3267 0 0.24899 0.21553-0.11727 0.32527-0.47296 0.1417-0.60401 0.12491-0.60401-0.0774v-0.17548l-0.22308 0.17548c-0.15497 0.12189-0.34657 0.17548-0.62748 0.17548-0.34762 0-0.43515-0.0366-0.62358-0.2605zm4.1138 0.18692c-0.0616-0.039-0.14522-0.21847-0.18587-0.39873-0.10259-0.45488 0.0696-0.54618 0.29296-0.15534 0.0927 0.16223 0.25557 0.3168 0.36189 0.34348 0.26601 0.0668 0.58751-0.0258 0.64934-0.1869 0.0919-0.23941-0.0998-0.43118-0.62084-0.62116-0.54693-0.19938-0.68185-0.35153-0.68185-0.76888 0-0.41542 0.3435-0.67885 0.88518-0.67885 0.49409 0 0.68999 0.11102 0.76804 0.43526 0.0804 0.33412-0.0999 0.37453-0.34925 0.0783-0.14925-0.17738-0.29445-0.25951-0.45879-0.25951-0.2251 0-0.50652 0.18423-0.50652 0.33159 0 0.13414 0.3077 0.33301 0.66064 0.427 0.47617 0.1268 0.69403 0.3516 0.69403 0.71615 0 0.40615-0.0697 0.54518-0.34472 0.68739-0.25921 0.13404-0.98284 0.1653-1.1642 0.0503zm3.4713 0c-0.0616-0.039-0.14522-0.21847-0.18588-0.39873-0.10259-0.45488 0.0696-0.54618 0.29296-0.15534 0.0927 0.16223 0.25557 0.3168 0.36189 0.34348 0.26601 0.0668 0.58751-0.0258 0.64934-0.1869 0.0919-0.23941-0.0998-0.43118-0.62084-0.62116-0.54693-0.19938-0.68185-0.35153-0.68185-0.76888 0-0.41542 0.3435-0.67885 0.88518-0.67885 0.49409 0 0.68999 0.11102 0.76805 0.43526 0.0804 0.33412-0.0999 0.37453-0.34925 0.0783-0.14926-0.17738-0.29446-0.25951-0.45879-0.25951-0.2251 0-0.50652 0.18423-0.50652 0.33159 0 0.13414 0.30769 0.33301 0.66063 0.427 0.47618 0.1268 0.69403 0.3516 0.69403 0.71615 0 0.40615-0.0697 0.54518-0.34472 0.68739-0.25921 0.13404-0.98284 0.1653-1.1642 0.0503zm6.8853-8e-3c-0.0931-0.0388-0.2812-0.18872-0.41793-0.33321-0.20223-0.21373-0.25494-0.35351-0.28266-0.74963-0.0284-0.40624-9.8e-4 -0.53603 0.16561-0.78326 0.29234-0.43383 0.68465-0.60865 1.2801-0.57043 0.43169 0.0277 0.52836 0.0687 0.79862 0.33901 0.26905 0.26905 0.31178 0.36888 0.34186 0.79862 0.0288 0.41087 2e-3 0.53957-0.16531 0.78747-0.10982 0.16298-0.33227 0.36295-0.49432 0.44437-0.30702 0.15425-0.93418 0.18856-1.226 0.0671zm0.82869-0.17998c0.48541-0.22117 0.6878-1.2009 0.34404-1.6654-0.26934-0.36394-0.566-0.47754-0.85577-0.3277-0.46001 0.23788-0.62479 0.94486-0.365 1.566 0.0955 0.22837 0.39813 0.46557 0.65789 0.51567 9e-3 2e-3 0.10793-0.038 0.21884-0.0886zm11.458 0.13656c-0.45004-0.1604-0.95054-0.67216-1.1073-1.1322-0.15114-0.44358-0.16844-1.1842-0.0386-1.6518 0.12795-0.46077 0.67928-1.0289 1.1562-1.1914 0.49581-0.16894 1.333-0.17108 1.8049-5e-3 0.24768 0.0874 0.39228 0.10097 0.45091 0.0423 0.1531-0.15311 0.20146-0.0941 0.25876 0.31586 0.0309 0.22119 0.0776 0.52599 0.10371 0.67733 0.0701 0.40602-0.13154 0.34618-0.43703-0.12971-0.39385-0.61353-0.73399-0.80223-1.3749-0.76275-0.6099 0.0376-0.89979 0.20981-1.1771 0.69942-0.71137 1.2558 0.27029 3.0369 1.5938 2.8917 0.44691-0.049 0.96369-0.28584 1.2042-0.55183 0.16511-0.18256 0.38905-0.24022 0.38905-0.10017 0 0.17674-0.45534 0.59997-0.86528 0.80425-0.34986 0.17434-0.55812 0.2175-1.0352 0.21453-0.32846-2e-3 -0.74521-0.0565-0.9261-0.12094zm7.7871-0.13584c-0.20196-0.24002-0.21919-0.32337-0.21919-1.0604 0-0.77536-6e-3 -0.8024-0.21167-0.88041-0.35092-0.13342-0.24041-0.25399 0.23284-0.25404l0.4445-4e-5v0.87994c0 0.74643 0.0245 0.90702 0.16129 1.0584 0.22207 0.24568 0.64459 0.23549 0.8859-0.0214 0.16806-0.17889 0.18511-0.27414 0.16292-0.91016-0.0231-0.66346-0.0374-0.71215-0.21528-0.73742-0.10477-0.0149-0.1905-0.0816-0.1905-0.14816 0-0.09 0.11668-0.12112 0.45387-0.12112h0.45387l-0.0417 0.79656c-0.0526 1.0061-9.2e-4 1.2354 0.27854 1.2354 0.3267 0 0.24899 0.21553-0.11727 0.32527-0.47296 0.1417-0.60401 0.12491-0.60401-0.0774v-0.17548l-0.22308 0.17548c-0.15497 0.12189-0.34657 0.17548-0.62748 0.17548-0.34762 0-0.43515-0.0366-0.62358-0.2605zm4.1657-1.449 0.0246-1.679-0.21507-0.19933c-0.11829-0.10962-0.21508-0.22275-0.21508-0.25139 0-0.0637 0.63611-0.39418 0.75863-0.39418 0.0557 0 0.088 0.34589 0.088 0.9404 0 0.86486 0.0119 0.93497 0.14817 0.87294 0.0815-0.0371 0.36427-0.0825 0.6284-0.10091 0.45055-0.0314 0.49997-0.0154 0.79963 0.25924 0.29551 0.27082 0.32168 0.33309 0.34986 0.83269 0.0353 0.62576-0.13031 0.97851-0.59179 1.2604-0.22807 0.13935-0.40811 0.16594-1.0379 0.15331l-0.762-0.0153zm1.6328 1.237c0.16898-0.17987 0.20526-0.3061 0.20526-0.71411 0-0.43297-0.0314-0.52843-0.24867-0.75518-0.18786-0.19608-0.32367-0.25956-0.55532-0.25956-0.54285 0-0.62217 0.12613-0.57641 0.91653 0.0476 0.82246 0.18083 1.0308 0.6591 1.0308 0.22462 0 0.36769-0.0606 0.51604-0.21849zm14.937 0.22836c-0.59466-0.29991-0.91756-0.72876-1.058-1.4051-0.1563-0.75293 0.0681-1.4476 0.64883-2.0085 0.44109-0.42598 0.84066-0.576 1.5283-0.57378 0.72879 2e-3 1.1487 0.18821 1.6104 0.7128 0.44431 0.50477 0.55668 0.8463 0.51591 1.568-0.0416 0.73635-0.35728 1.2825-0.95495 1.6521-0.3554 0.21979-0.51161 0.2601-1.0984 0.28344-0.62195 0.0247-0.73027 4e-3 -1.1921-0.229zm1.761-0.14601c1.1377-0.57164 1.1316-2.6196-0.01-3.3436-0.87178-0.55286-1.7706-0.12837-2.0956 0.98973-0.41977 1.444 0.92483 2.9471 2.1056 2.3539zm9.8866 0.24606c-0.58458-0.30659-0.63839-0.46874-0.66347-1.9996-0.028-1.7118-0.0361-1.751-0.36017-1.751-0.16789 0-0.25238-0.0425-0.25238-0.127 0-0.10519 0.15992-0.127 0.93133-0.127s0.93133 0.0218 0.93133 0.127c0 0.0779-0.0792 0.127-0.20474 0.127-0.473 0-0.47259-1e-3 -0.47259 1.4088 0 1.4244 0.0779 1.7739 0.44964 2.0175 0.54432 0.35665 1.4585 0.18598 1.7274-0.32248 0.16443-0.31093 0.25476-2.159 0.1331-2.7228-0.0649-0.30094-0.10337-0.34162-0.34494-0.3652-0.16757-0.0163-0.27187-0.0732-0.27187-0.14816 0-0.0972 0.16158-0.12164 0.80434-0.12164 0.65852 0 0.80433 0.023 0.80433 0.127 0 0.0785-0.0796 0.127-0.20869 0.127-0.11967 0-0.24607 0.0699-0.29633 0.16377-0.0484 0.0905-0.0885 0.70615-0.0895 1.3758-2e-3 1.3838-0.10884 1.7576-0.60211 2.1094-0.38774 0.27655-1.5676 0.33603-2.0147 0.10155zm-107.62-0.0622c0-0.0753 0.10472-0.13173 0.27517-0.14816l0.27517-0.0265 0.0242-0.72308 0.0242-0.72307-0.47558-0.7586c-0.6981-1.1135-0.86247-1.3089-1.1011-1.3089-0.12787 0-0.20736-0.0487-0.20736-0.127 0-0.10483 0.15522-0.127 0.889-0.127 0.73378 0 0.889 0.0222 0.889 0.127 0 0.0804-0.08097 0.127-0.22072 0.127-0.26895 0-0.25862 0.0357 0.28772 0.9924 0.45232 0.79211 0.38265 0.80159 1.0267-0.13964 0.46858-0.68483 0.51998-0.85276 0.26099-0.85276-0.09407 0-0.16933-0.0564-0.16933-0.127 0-0.1023 0.1317-0.127 0.67733-0.127 0.49749 0 0.67733 0.0291 0.67733 0.10949 0 0.0602-0.11387 0.14595-0.25304 0.1905-0.18241 0.0584-0.45418 0.35093-0.97367 1.0481l-0.72063 0.96706 0.0084 0.51461c0.01221 0.7445 0.08146 0.93283 0.35474 0.96474 0.13036 0.0152 0.22948 0.0792 0.22948 0.14816 0 0.0977-0.17353 0.12138-0.889 0.12138-0.71635 0-0.889-0.0236-0.889-0.12164zm16.425-5e-3c0-0.0699 0.07212-0.127 0.16028-0.127 0.08815 0 0.1834-0.0603 0.21167-0.13392 0.08834-0.23021 0.05697-2.8301-0.03625-3.0043-0.0482-0.0901-0.14346-0.16377-0.21167-0.16377-0.24476 0-0.11754-0.25386 0.21127-0.42161 0.56936-0.29047 0.56732-0.29379 0.5262 0.85971l-0.03675 1.0308 0.23405-0.1841c0.34805-0.27378 0.96286-0.25602 1.2551 0.0362 0.20432 0.20432 0.22209 0.28285 0.24438 1.0795 0.02288 0.8181 0.03314 0.86045 0.21453 0.88621 0.10478 0.0149 0.1905 0.0816 0.1905 0.14817 0 0.0943-0.14072 0.12111-0.635 0.12111s-0.635-0.0268-0.635-0.12111c0-0.0666 0.08572-0.13329 0.1905-0.14817 0.18078-0.0257 0.1905-0.0644 0.1905-0.75922 0-0.60125-0.02884-0.76399-0.16129-0.91016-0.23717-0.26175-0.66818-0.23807-0.89407 0.0491-0.15405 0.19585-0.1753 0.32118-0.15431 0.91017 0.02264 0.63528 0.03766 0.68494 0.21484 0.7101 0.10478 0.0149 0.1905 0.0816 0.1905 0.14817 0 0.0943-0.14072 0.12111-0.635 0.12111-0.508 0-0.635-0.0254-0.635-0.127zm7.366 0c0-0.088 0.0884-0.127 0.28766-0.127h0.28766l0.0611-1.1412c0.0336-0.62766 0.0343-1.4278 1e-3 -1.778l-0.0597-0.63679h-0.28911c-0.20054 0-0.28911-0.0389-0.28911-0.127 0-0.10754 0.20525-0.127 1.3393-0.127 1.5304 0 2.0432 0.10683 2.5192 0.52479 0.49796 0.43721 0.65045 0.83301 0.61571 1.5981-0.0258 0.56892-0.0644 0.70667-0.28669 1.0229-0.29474 0.41937-0.68902 0.70986-1.1296 0.83224-0.16846 0.0468-0.92542 0.0853-1.6821 0.0856-1.1667 4e-4 -1.3758-0.0188-1.3758-0.12653zm3.059-0.42589c0.53956-0.38003 0.77116-0.87914 0.73377-1.5813-0.0247-0.46447-0.076-0.63266-0.28168-0.9238-0.36624-0.51845-0.78761-0.70969-1.5638-0.70969h-0.635l-0.023 1.622c-0.0277 1.9576-0.0416 1.9264 0.83842 1.8767 0.4691-0.0265 0.63962-0.0785 0.93123-0.28388zm3.1216 0.43151c0-0.0695 0.0996-0.13283 0.23284-0.14816l0.23283-0.0268v-0.762c0-0.70902-0.0132-0.76781-0.1905-0.84558-0.10477-0.046-0.19036-0.12217-0.19018-0.16933 3.4e-4 -0.0823 0.63157-0.382 0.8049-0.38218 0.0509-5e-5 0.0838 0.42246 0.0838 1.0755 0 1.0688 1e-3 1.0759 0.20539 1.1243 0.11296 0.0267 0.22091 0.0952 0.23989 0.15212 0.0254 0.0762-0.15722 0.1035-0.69222 0.1035-0.57457 0-0.72673-0.0254-0.72673-0.12138zm21.421 0c0-0.0695 0.0996-0.13283 0.23283-0.14816l0.23284-0.0268v-0.762c0-0.70902-0.0132-0.76781-0.1905-0.84558-0.10478-0.046-0.19036-0.12217-0.19019-0.16933 3.4e-4 -0.0823 0.63158-0.382 0.80491-0.38218 0.0509-5e-5 0.0838 0.42246 0.0838 1.0755 0 1.0688 1e-3 1.0759 0.20539 1.1243 0.11296 0.0267 0.22091 0.0952 0.23989 0.15212 0.0254 0.0762-0.15722 0.1035-0.69223 0.1035-0.57456 0-0.72672-0.0254-0.72672-0.12138zm7.366-6e-3c0-0.079 0.08-0.127 0.21167-0.127 0.20917 0 0.21166-8e-3 0.21166-0.71967 0-0.60677-0.0266-0.74623-0.16933-0.889-0.23136-0.23135-0.21584-0.28512 0.12987-0.44998 0.38576-0.18396 0.4628-0.17973 0.4628 0.0254 0 0.16761 7.6e-4 0.16761 0.27516 3.3e-4 0.35647-0.21734 0.91152-0.22058 1.176-7e-3 0.18209 0.14716 0.20364 0.24325 0.24221 1.0795 0.0402 0.87264 0.0517 0.91929 0.23283 0.94501 0.10478 0.0149 0.1905 0.0816 0.1905 0.14816 0 0.0943-0.14072 0.12111-0.635 0.12111-0.508 0-0.635-0.0254-0.635-0.127 0-0.0698 0.0721-0.127 0.16028-0.127 0.21566-2e-5 0.26306-0.15805 0.26306-0.87711 0-0.75419-0.13124-0.98558-0.55899-0.98558-0.20202 0-0.36214 0.0668-0.50663 0.21125-0.19609 0.1961-0.20948 0.26138-0.18665 0.91017 0.0229 0.65165 0.0375 0.70075 0.2151 0.72597 0.10478 0.0149 0.1905 0.0816 0.1905 0.14817 0 0.0943-0.14072 0.12111-0.635 0.12111-0.508 0-0.635-0.0254-0.635-0.127zm13.039 6e-3c0-0.0695 0.0996-0.13283 0.23283-0.14816l0.23283-0.0268 0.0256-1.2277c0.0331-1.5866-0.0153-1.9315-0.28543-2.0342-0.11321-0.043-0.20583-0.11051-0.20583-0.14992 0-0.0745 0.75047-0.44053 0.90324-0.44053 0.0574 0 0.0843 0.65719 0.0788 1.9262l-8e-3 1.9262 0.23283 0.0268c0.13326 0.0153 0.23283 0.0787 0.23283 0.14816 0 0.0959-0.15123 0.12138-0.71966 0.12138-0.56844 0-0.71967-0.0255-0.71967-0.12138zm18.119-6e-3c0-0.0833 0.0834-0.127 0.2425-0.127 0.2243 0 0.24653-0.0295 0.29633-0.39282 0.0686-0.50048 0.0705-2.8519 2e-3 -3.0292-0.0329-0.0857-0.15482-0.13393-0.33867-0.13393-0.19533 0-0.28727-0.0395-0.28727-0.12353 0-0.10317 0.27067-0.12759 1.6424-0.14817l1.6424-0.0246 0.1041 0.46566c0.0573 0.25612 0.12238 0.5133 0.14471 0.5715 0.094 0.24504-0.23942 0.0794-0.45886-0.22796-0.30826-0.43172-0.50065-0.51287-1.216-0.51287h-0.58868v1.7972l0.40216-0.0577c0.39086-0.0561 0.61384-0.21713 0.61384-0.44337 0-0.0609 0.0572-0.11082 0.127-0.11082 0.0997 0 0.127 0.11683 0.127 0.54341 0 0.29888 0.0231 0.60368 0.0514 0.67734 0.0368 0.096 8.5e-4 0.13392-0.127 0.13392-0.11534 0-0.17839-0.0539-0.17839-0.1524 0-0.25061-0.17998-0.3556-0.6096-0.3556h-0.4064v1.524h0.29633c0.20696 0 0.29633 0.0383 0.29633 0.127 0 0.10483-0.15522 0.127-0.889 0.127s-0.889-0.0222-0.889-0.127zm11.176 0c0-0.0836 0.0837-0.127 0.24494-0.127 0.14526 0 0.26587-0.0545 0.29634-0.13392 0.0283-0.0737 0.0514-0.82804 0.0514-1.6764 0-1.5954-0.0306-1.7457-0.3556-1.7457-0.0838 0-0.1524-0.0571-0.1524-0.127 0-0.10663 0.18374-0.127 1.1457-0.127 1.2631 0 1.5831 0.0791 1.8881 0.46683 0.22559 0.28678 0.24986 0.92482 0.0463 1.2155-0.0755 0.10781-0.28322 0.25916-0.46157 0.33634l-0.32428 0.14032 0.56769 0.762c0.42652 0.57252 0.63603 0.78214 0.84257 0.84301 0.15119 0.0445 0.27488 0.13202 0.27488 0.19437 0 0.086-0.13804 0.10731-0.5715 0.0883l-0.5715-0.025-0.43085-0.65736c-0.57582-0.87851-0.77386-1.0783-1.0689-1.0783h-0.24255l0.0245 0.74083 0.0245 0.74084 0.27517 0.0265c0.17044 0.0164 0.27516 0.0728 0.27516 0.14816 0 0.098-0.17264 0.12164-0.889 0.12164-0.73378 0-0.889-0.0222-0.889-0.127zm1.8074-1.9846c0.63296-0.14688 0.98367-0.66164 0.78109-1.1465-0.14818-0.35467-0.51197-0.55191-1.0179-0.55191h-0.3852v0.83256c0 0.4579 0.0254 0.85795 0.0564 0.889 0.0729 0.0729 0.1685 0.069 0.56558-0.0232zm9.1993 1.9846c0-0.0835 0.0835-0.127 0.24364-0.127 0.44452 0 0.47603-0.12554 0.47603-1.8968v-1.6169l-0.3175-0.0263c-0.2077-0.0172-0.3175-0.0684-0.3175-0.14817 0-0.0969 0.15392-0.12189 0.7513-0.12189h0.7513l0.66645 1.5256 0.66644 1.5256 0.65178-1.3591c0.35848-0.7475 0.67557-1.434 0.70462-1.5256 0.0467-0.14712 0.13103-0.1665 0.72448-0.1665 0.54055 0 0.67163 0.0248 0.67163 0.127 0 0.0833-0.0833 0.127-0.24194 0.127-0.234 0-0.24373 0.0171-0.29633 0.52042-0.0697 0.66678-0.0697 1.8484 0 2.5152l0.0544 0.52042h0.28428c0.19624 0 0.28426 0.0393 0.28426 0.127 0 0.10519-0.15992 0.127-0.93133 0.127-0.75315 0-0.93133-0.0233-0.93133-0.12164 0-0.0753 0.10472-0.13173 0.27516-0.14816l0.27517-0.0265 0.0205-1.651 0.0205-1.651-0.38943 0.80433c-0.21419 0.44238-0.59424 1.2364-0.84455 1.7644-0.26939 0.56824-0.49656 0.94622-0.55667 0.92618-0.0558-0.0186-0.42796-0.78692-0.82693-1.7074-0.83348-1.9229-0.83135-1.9227-0.83393-0.0519-2e-3 1.4261 0.0301 1.558 0.38703 1.5929 0.16755 0.0164 0.27184 0.0732 0.27184 0.14816 0 0.0976-0.16711 0.12164-0.84666 0.12164-0.69615 0-0.84667-0.0226-0.84667-0.127zm-25.606-2.6307c-0.29577-0.29577-0.0371-1.1146 0.41745-1.3218 0.3098-0.14116 0.34885-0.0292 0.095 0.2724-0.27757 0.32987-0.27752 0.41227 0 0.63382 0.16886 0.13466 0.20832 0.22219 0.16362 0.36302-0.0714 0.22493-0.47286 0.25611-0.67644 0.0525zm1.016 0c-0.29577-0.29577-0.0371-1.1146 0.41745-1.3218 0.3098-0.14116 0.34885-0.0292 0.095 0.2724-0.26309 0.31266-0.27982 0.46829-0.0628 0.58442 0.19033 0.10186 0.27697 0.29625 0.20991 0.47099-0.0642 0.16741-0.49002 0.16351-0.65957-6e-3zm32.04 0.0945c0-0.0212 0.0952-0.17893 0.21166-0.35048 0.26202-0.38611 0.26185-0.40526-5e-3 -0.58023-0.14476-0.0949-0.20809-0.20363-0.1905-0.32723 0.0213-0.14969 0.0825-0.18515 0.31945-0.18515 0.2266 0 0.32077 0.0493 0.41518 0.21753 0.15897 0.28324 0.0792 0.58833-0.2526 0.96625-0.22072 0.25139-0.49801 0.39577-0.49801 0.25931zm1.0753-0.15193c0.0954-0.10477 0.22036-0.28114 0.2776-0.39194 0.0929-0.17982 0.0794-0.22113-0.12596-0.38487-0.32499-0.25913-0.26266-0.51435 0.12562-0.51435 0.35282 0 0.57018 0.29937 0.47954 0.66048-0.079 0.31493-0.54449 0.82118-0.75499 0.82118h-0.17531zm-90.342-0.37394c-0.111-0.111-0.0556-0.51844 0.0775-0.5695 0.40165-0.15413 0.7249 0.11749 0.54341 0.45661-0.0884 0.16512-0.49477 0.23901-0.62089 0.11289zm21.421 0c-0.111-0.111-0.0556-0.51844 0.0775-0.5695 0.40165-0.15413 0.7249 0.11749 0.5434 0.45661-0.0884 0.16512-0.49476 0.23901-0.62088 0.11289zm-3.0198-9.049c-2.19-0.46693-3.7335-1.9751-4.3287-4.2295-0.25351-0.96021-0.25299-2.6842 1e-3 -3.6407 0.57794-2.1756 2.1259-3.6628 4.3663-4.1949 1.0021-0.238 2.6166-0.23729 3.5596 2e-3 2.0769 0.52605 3.6815 2.0398 3.6822 3.4737 3.4e-4 0.65627-0.61509 1.1582-1.3223 1.0785-0.52052-0.0587-0.69699-0.20349-1.2496-1.0255-0.53971-0.80281-0.79845-1.0528-1.4399-1.3912-0.40003-0.21105-0.50856-0.22814-1.4484-0.22814-0.92582 0-1.0591 0.0202-1.5016 0.2276-1.3454 0.63052-2.0367 1.9919-2.0342 4.0057 2e-3 1.9185 0.62859 3.1449 1.9073 3.7355 0.48876 0.22576 0.60304 0.2438 1.5438 0.2438 0.92081 0 1.0606-0.0209 1.4918-0.22311 0.74368-0.3487 1.1246-0.75086 1.5735-1.6613 0.45211-0.91703 0.68736-1.1206 1.295-1.1206 0.4295 0 0.84588 0.21357 1.0633 0.5454 0.10771 0.16439 0.13275 0.35096 0.10566 0.78721-0.097 1.562-1.6198 3.0756-3.6052 3.5834-0.77947 0.19936-2.7935 0.2173-3.6598 0.0326zm40.964 0.0485c-1.704-0.30625-2.7587-0.98627-3.3298-2.1468-0.50629-1.0289-0.55056-1.4768-0.55056-5.571 0-3.4096 0.0101-3.6562 0.16127-3.9507 0.22365-0.4356 0.58664-0.62739 1.1875-0.62739 0.56186 0 0.92531 0.15682 1.1575 0.49944 0.15006 0.22141 0.16365 0.48457 0.20463 3.9625 0.0514 4.3678 0.0753 4.5299 0.7685 5.2231 0.54938 0.54937 1.0533 0.69013 2.3088 0.64491 0.81907-0.0295 1.0004-0.0638 1.382-0.26159 0.48946-0.25366 0.79696-0.6066 1.017-1.1673 0.12948-0.3299 0.15267-0.83503 0.19216-4.1852 0.0429-3.6359 0.0528-3.8234 0.21724-4.1033 0.24514-0.41727 0.61571-0.60776 1.1823-0.60776 0.5303 0 0.89493 0.16971 1.1765 0.54756 0.17517 0.2351 0.17818 0.3059 0.17818 4.191 0 3.5714-0.0149 4.0044-0.15465 4.4971-0.21088 0.74348-0.42562 1.1387-0.89037 1.6386-0.51782 0.55704-1.1192 0.93569-1.9329 1.217-0.61785 0.21363-0.77174 0.23057-2.2714 0.25-0.88477 0.0115-1.7866-0.0111-2.004-0.0502zm-22.586-0.23534c-0.15967-0.0814-0.36922-0.25561-0.46566-0.38708-0.17297-0.23579-0.17536-0.31155-0.17536-5.5606 0-5.2427 3e-3 -5.325 0.17457-5.5554 0.3248-0.43504 0.55693-0.54909 1.123-0.5518 0.63392-3e-3 1.007 0.18235 1.2211 0.60674 0.13555 0.26871 0.14804 0.68426 0.14816 4.929l1.3e-4 4.6355h3.0099c3.2305 0 3.3305 0.0122 3.6313 0.44169 0.0728 0.10393 0.13214 0.36187 0.13214 0.57431s-0.0593 0.47039-0.13214 0.57432c-0.308 0.43972-0.32809 0.44169-4.4992 0.44155-3.5244-8e-5 -3.9042-0.0136-4.168-0.14816zm41.484 0c-0.1614-0.0814-0.37095-0.28139-0.46567-0.44437-0.16801-0.2891-0.17221-0.42135-0.17221-5.4187 0-4.9919 4e-3 -5.1299 0.17169-5.4187 0.0952-0.16439 0.32143-0.37173 0.508-0.46566 0.31777-0.16 0.50202-0.1692 3.342-0.16676 3.2566 3e-3 3.8394 0.0578 4.6447 0.43879 0.88199 0.41725 1.4411 1.0798 1.6721 1.9812 0.30448 1.1885-0.22736 2.3976-1.3264 3.0154l-0.40619 0.22833 0.65007 0.30704c0.73856 0.34884 1.2596 0.82498 1.5486 1.415 0.16524 0.33745 0.1965 0.53509 0.1973 1.2476 8.5e-4 0.75169-0.0251 0.90009-0.23101 1.3228-0.35482 0.72832-0.82988 1.2123-1.5265 1.5551-1.0088 0.49644-1.5174 0.55113-5.1242 0.55098-2.8673-8e-5 -3.2183-0.0151-3.4822-0.14816zm5.4421-1.7995c0.45685-0.0444 0.99025-0.1514 1.1853-0.23769 0.49673-0.21974 0.88046-0.68318 0.95008-1.1474 0.1164-0.77618-0.15116-1.2818-0.86338-1.6315l-0.494-0.24257-2.0532-0.0278-2.0532-0.0278v3.3999l1.2488-2e-3c0.68686-1e-3 1.6226-0.0385 2.0795-0.083zm0.53724-5.3747c1.006-0.29962 1.4508-1.5854 0.76976-2.2252-0.45282-0.4254-0.74269-0.47929-2.7515-0.51154l-1.8838-0.0302v3.0043l1.7145-0.0537c1.1533-0.0361 1.8574-0.0962 2.151-0.18369zm-105.38 6.0129c0-1.0861-0.0169-1.0757 1.7071-1.0565 2.2242 0.0248 2.2121 0.0333 2.345-1.6556 0.05129-0.65194 0.11717-3.5666 0.14638-6.477 0.02922-2.9104 0.05853-5.6822 0.06513-6.1596l0.01201-0.8679-4.1529 7e-5c-3.1172 5e-5 -4.1782-0.0253-4.2545-0.10154-0.13653-0.13652-0.13653-1.4383 0-1.5748 0.06351-0.0635 0.40475-0.10474 0.91017-0.10997 0.44471-5e-3 1.0142-0.0332 1.2656-0.0635 0.80062-0.0966 0.74673 0.22674 0.86375-5.1822l0.10177-4.7037-1.2064-2.3614c-0.66354-1.2988-1.4175-2.7635-1.6755-3.2549-0.9907-1.8871-2.3825-4.5004-2.7305-5.1269-0.07761-0.1397-0.28867-0.5207-0.46903-0.84667-1.0962-1.9811-1.4426-2.2761-2.8039-2.3872l-0.83452-0.06813-0.02434-0.78317-0.02434-0.78317h9.5705l0.0539 0.21475c0.08822 0.3515-0.0061 1.2291-0.14123 1.3147-0.06661 0.04215-0.38781 0.0795-0.71378 0.08299-0.78851 0.0084-1.3973 0.11446-1.4891 0.25931-0.04108 0.06487-0.07527 0.25765-0.07598 0.42842-0.0012 0.2934 0.07777 0.52387 0.4885 1.4252 0.09549 0.20955 0.28646 0.62865 0.42437 0.93133 0.29476 0.64694 0.96564 2.0496 1.883 3.937 1.2405 2.5523 2.0057 4.1488 2.1593 4.5058 0.17762 0.41268 0.15778 0.42813 0.67578-0.52645 0.29272-0.53942 0.58483-1.0432 1.8294-3.155 0.22679-0.38482 0.41234-0.71315 0.41234-0.72962 0-0.01647 0.25731-0.46362 0.5718-0.99366 0.31449-0.53004 0.62882-1.078 0.6985-1.2177 0.06968-0.1397 0.15676-0.2921 0.19351-0.33867 0.08975-0.11373 0.79495-1.3684 1.2242-2.178 0.32685-0.61651 0.614-1.4133 0.614-1.7038 0-0.07173-0.08573-0.2272-0.1905-0.34549-0.17447-0.19698-0.26768-0.21984-1.1077-0.27164-0.87956-0.05425-0.9205-0.06533-0.99836-0.27011-0.04465-0.11745-0.07008-0.46406-0.05649-0.77024l0.0247-0.5567 3.8735-0.02202 3.8735-0.02202v0.71754c0 0.85841 0.0129 0.84694-1.04 0.92429-1.0849 0.0797-1.5221 0.37593-2.3114 1.5661-0.26654 0.4019-0.59306 0.88936-0.72561 1.0832s-0.24099 0.37366-0.24099 0.39951-0.14851 0.26727-0.33002 0.53649c-0.32204 0.47766-1.7149 2.6923-1.9053 3.0295-0.11261 0.1994-0.55785 0.92436-1.5339 2.4977-0.39002 0.62865-0.87107 1.4097-1.069 1.7357-0.19793 0.32597-0.46665 0.75193-0.59715 0.94659-0.1305 0.19466-0.23727 0.36611-0.23727 0.381 0 0.01489 2.6575 0.02708 5.9055 0.02708 5.9794 0 6.5531 0.02374 8.0222 0.33194 0.32597 0.06839 0.78317 0.16345 1.016 0.21125 0.53918 0.1107 1.0208 0.25027 1.397 0.40484 0.16298 0.06697 0.37253 0.15274 0.46567 0.1906 0.46709 0.18989 1.5275 0.72561 1.5522 0.7842 0.0155 0.03676 0.0652 0.06684 0.11048 0.06684 0.10263 0 1.121 0.68269 1.1595 0.77729 0.0155 0.03816 0.0738 0.06937 0.12947 0.06937 0.0557 0 0.15618 0.0762 0.22331 0.16933 0.0671 0.09313 0.14607 0.16933 0.17543 0.16933 0.10007 0 1.0778 0.97214 1.5328 1.524 1.0784 1.308 1.7979 2.5304 2.3425 3.9793 0.16505 0.43919 0.22757 0.63945 0.55511 1.778 0.29689 1.032 0.34191 1.6301 0.34092 4.5297-1e-3 3.3129-0.0635 3.8407-0.70056 5.9267-1.0392 3.4027-4.0615 7.1712-6.638 8.2769-0.12805 0.055-0.23283 0.12967-0.23283 0.16602 0 0.0364-0.0762 0.0661-0.16933 0.0661-0.0931 0-0.16934 0.0381-0.16934 0.0847s-0.0952 0.0847-0.21166 0.0847c-0.11642 0-0.21167 0.0381-0.21167 0.0847s-0.0767 0.0847-0.17048 0.0847c-0.0938 0-0.23664 0.0335-0.3175 0.0744-0.22489 0.11387-0.92827 0.33363-1.5864 0.49563-0.53746 0.13231-1.3834 0.14812-9.0805 0.16972l-8.4878 0.0238zm14.478-0.88074c0.63249-0.12608 1.2489-0.30033 1.3224-0.37381 0.0333-0.0333 0.13091-0.0605 0.21691-0.0605s0.22253-0.0337 0.30339-0.0748c0.0809-0.0411 0.24227-0.11193 0.35869-0.15731 0.43831-0.17089 1.536-0.7425 1.7756-0.92462 2.1388-1.6259 3.1218-2.8986 4.2396-5.4896 0.0928-0.21503 0.62805-1.9225 0.74317-2.3707 0.32799-1.2767 0.45717-2.4924 0.4542-4.2742-4e-3 -2.2048-0.19908-3.3998-0.88854-5.4337-0.73518-2.1687-1.6591-3.7219-2.9237-4.9148-0.65024-0.6134-1.7486-1.4217-1.932-1.4217-0.0626 0-0.11373-0.03366-0.11373-0.07479 0-0.04114-0.0667-0.09584-0.14816-0.12156-0.0815-0.02572-0.28152-0.12057-0.4445-0.21076-0.16299-0.0902-0.39159-0.20185-0.508-0.24811-0.11642-0.04626-0.30692-0.12408-0.42334-0.17292-0.11641-0.04884-0.42121-0.15379-0.67733-0.23322-0.25612-0.07943-0.53182-0.17791-0.61268-0.21886-0.0809-0.04094-0.27864-0.07444-0.43951-0.07444-0.16086 0-0.31111-0.03013-0.33387-0.06696-0.0228-0.03683-0.18693-0.07586-0.36483-0.08672-0.17789-0.01087-0.62724-0.05694-0.99856-0.10237-1.1862-0.14515-2.5451-0.10543-3.9599 0.11576-0.28539 0.04462-0.67038 0.41223-0.8414 0.80343-0.27548 0.63013-0.36254 6.4225-0.24008 15.974 0.09412 7.3414 0.10408 7.6386 0.27243 8.128 0.2388 0.69423 0.43774 1.0694 0.67353 1.27 0.3736 0.31792 1.482 0.80355 1.8387 0.80563 0.12237 6.7e-4 0.27964 0.0396 0.34949 0.0865 0.16168 0.1085 2.6645 0.0503 3.302-0.0768zm-10.208-17.897c-0.01309-0.43074-0.04841-2.3643-0.07848-4.2968-0.03066-1.9706-0.09417-3.681-0.1446-3.8947-0.13882-0.58814-0.34078-0.73018-1.1229-0.78973l-0.66392-0.05056 0.05863 3.9126c0.03225 2.152 0.10016 4.2458 0.15092 4.6529 0.11574 0.92832 0.2848 1.1406 0.94549 1.1872 0.24042 0.017 0.53646 0.0379 0.65788 0.0465l0.22076 0.0157zm29.935-11.875v-12.488h10.583v3.2173h-6.7733v7.4507h5.842v3.2173h-5.842v11.091h-3.81zm13.974 12.378c-0.39822-0.12695-0.87507-0.62453-1.0009-1.0444-0.15057-0.50256-0.15057-22.164 0-22.667 0.13286-0.44345 0.60761-0.91819 1.0511-1.0511 0.49588-0.14857 10.318-0.14857 10.814 0 0.44344 0.13286 0.91819 0.60761 1.051 1.0511 0.15057 0.50256 0.15057 22.164 0 22.667-0.13286 0.44344-0.60761 0.91819-1.051 1.051-0.46415 0.13906-10.426 0.13293-10.864-7e-3zm8.124-12.378v-9.3557h-5.334v18.711h5.334zm7.112 0v-12.488l5.6515 0.0019c5.2834 0.0017 5.6736 0.0119 5.9909 0.15604 0.43946 0.19964 0.86201 0.6853 0.9476 1.0891 0.0372 0.17562 0.0677 2.7006 0.0677 5.611 0 4.1382-0.0241 5.3597-0.11055 5.6036-0.14496 0.40899-0.67745 0.88203-1.1301 1.0039-0.19866 0.05349-0.82454 0.12222-1.3908 0.15272l-1.0296 0.05546 1.9798 5.207c1.0889 2.8638 2.055 5.407 2.1469 5.6515l0.167 0.4445h-4.0264l-2.1372-5.7785-2.1372-5.7785 3e-3 -1.1218 3e-3 -1.1218h3.81v-8.0434h-4.9953v21.844h-3.81zm16.806 12.362c-0.42352-0.15098-0.84867-0.60382-0.967-1.03-0.0621-0.22348-0.0905-4.0072-0.0909-12.073l-4.7e-4 -11.748h3.8947v21.844h5.2493v-21.844h3.8947l-8.4e-4 11.705c0 7.5802-0.0305 11.813-0.0856 12.011-0.12745 0.45881-0.42401 0.84328-0.80298 1.041-0.33147 0.17294-0.44937 0.17709-5.5457 0.19513-4.328 0.0153-5.2642-2e-3 -5.5457-0.1023zm15.113-12.364v-12.49l1.8401 0.02282 1.8401 0.02282 2.0109 6.731c1.106 3.702 2.058 6.9918 2.1155 7.3105l0.10466 0.57951 0.0906-0.53718c0.0498-0.29545 1.0026-3.5947 2.1173-7.3317l2.0268-6.7945h3.6868v24.977h-3.7333l0.0328-7.1755c0.018-3.9465 0.0587-7.2898 0.0903-7.4295 0.0464-0.20498 0.0409-0.22132-0.0287-0.08467-0.0474 0.09313-0.79235 2.8554-1.6554 6.1383-0.86307 3.283-1.5896 6.0357-1.6145 6.1172-0.0396 0.12977-0.16477 0.14817-1.0075 0.14817-0.84229 0-0.96804-0.01847-1.0087-0.14817-0.0255-0.08149-0.77196-2.8891-1.6587-6.2391-1.4611-5.5198-1.8334-6.8384-1.6509-5.847 0.0343 0.18627 0.0788 3.5295 0.0989 7.4295l0.0365 7.0908h-3.7334z" stroke-width=".084667"/>
  </g>
 </g>
</svg>
